<svg width="64" height="49" viewBox="0 0 64 49" fill="none" xmlns="http://www.w3.org/2000/svg">
<path d="M1.84375 26.5176H7.625C8.25 26.5176 8.875 27.1426 8.875 27.7676V36.5176H26.5312L30.5937 28.0801L15.9062 22.9238C15.5938 22.7676 15.2812 22.6113 15.2812 22.2988C15.125 21.9863 15.125 21.6738 15.2812 21.3613L17.9375 13.0801L22.1562 1.04883C22.3125 0.736327 22.4687 0.423828 22.7812 0.423828C23.0937 0.267578 23.4062 0.267578 23.7188 0.423828L61.8438 13.5488C62.3125 13.7051 62.625 14.0176 62.625 14.4863C62.625 14.9551 62.4687 15.4238 62 15.7363L55.75 19.7988L50.9062 33.8613C50.75 34.1738 50.5938 34.4863 50.2813 34.4863C50.125 34.6426 49.9687 34.6426 49.8125 34.6426C49.6562 34.6426 49.5 34.6426 49.3438 34.6426L32.9375 28.8613L28.4062 38.2363C28.25 38.7051 27.7812 38.8613 27.3125 38.8613H8.875V47.6113C8.875 48.2363 8.25 48.8613 7.625 48.8613H1.84375C1.21875 48.8613 0.593754 48.2363 0.593754 47.6113V27.7676C0.593754 27.1426 1.0625 26.5176 1.84375 26.5176ZM24.0312 2.92383L20.5938 12.7676L47.625 22.2988L53.875 18.2363L58.5625 15.1113L24.0312 2.92383ZM52.4688 21.9863L48.5625 24.6426C48.4062 24.7988 48.25 24.7988 48.0937 24.7988C48.0937 24.7988 48.0938 24.7988 47.9375 24.7988C47.9375 24.7988 47.9375 24.7988 47.7812 24.7988C47.625 24.7988 47.4687 24.7988 47.3125 24.7988L19.8125 15.1113L17.7812 21.0488L48.875 31.9863L52.4688 21.9863ZM2.9375 46.3613H6.375V29.0176H2.9375V46.3613Z" fill="white"/>
<path d="M55.7492 23.0801C55.9055 22.7676 56.0617 22.4551 56.3742 22.4551C56.6867 22.2988 56.9992 22.2988 57.3117 22.4551L62.6242 24.3301C63.2492 24.4863 63.5617 25.2676 63.4055 25.8926L59.968 35.5801C59.8117 36.0488 59.343 36.3613 58.8742 36.3613C58.718 36.3613 58.5617 36.3613 58.4055 36.3613L53.093 34.4863C52.7805 34.3301 52.468 34.1738 52.468 33.8613C52.3117 33.5488 52.3117 33.2363 52.468 32.9238L55.7492 23.0801ZM58.093 33.5488L60.593 26.2051L57.6242 25.1113L55.1242 32.4551L58.093 33.5488Z" fill="white"/>
</svg>
