<svg width="38" height="46" viewBox="0 0 38 46" fill="none" xmlns="http://www.w3.org/2000/svg">
<path d="M19 25.082C22.4518 25.082 25.25 22.2838 25.25 18.832C25.25 15.3803 22.4518 12.582 19 12.582C15.5482 12.582 12.75 15.3803 12.75 18.832C12.75 22.2838 15.5482 25.082 19 25.082Z" stroke="white" stroke-width="3" stroke-linecap="round" stroke-linejoin="round"/>
<path d="M19.0006 2.16602C14.5804 2.16602 10.3411 3.92196 7.21554 7.04757C4.08993 10.1732 2.33398 14.4124 2.33398 18.8327C2.33398 22.7744 3.17148 25.3535 5.45898 28.2077L19.0006 43.8327L32.5423 28.2077C34.8298 25.3535 35.6673 22.7744 35.6673 18.8327C35.6673 14.4124 33.9114 10.1732 30.7858 7.04757C27.6602 3.92196 23.4209 2.16602 19.0006 2.16602V2.16602Z" stroke="white" stroke-width="3" stroke-linecap="round" stroke-linejoin="round"/>
</svg>
