<svg width="80" height="80" viewBox="0 0 80 80" fill="none" xmlns="http://www.w3.org/2000/svg">
<path d="M2.70325 80.0001H77.2975C78.1385 80.0035 78.9331 79.614 79.4454 78.9465C79.9504 78.2987 80.124 77.4515 79.9136 76.6575C79.2105 74.0404 77.2389 71.9521 74.6669 71.1001V35.4901C75.5218 34.5281 75.9956 33.287 76 31.9995C76 30.0938 74.9833 28.3333 73.3332 27.3807C71.683 26.4281 69.6502 26.4281 68 27.3807C66.3499 28.3333 65.3332 30.0938 65.3332 31.9995C65.3376 33.2869 65.812 34.528 66.6669 35.4901V45.4661C61.6803 49.7328 53.0921 54.6664 39.9997 54.6664C26.9333 54.6664 18.3283 49.7171 13.3326 45.4398V35.4901C14.1875 34.5281 14.6618 33.287 14.6663 31.9995C14.6663 30.0938 13.6495 28.3333 11.9994 27.3807C10.3493 26.4281 8.31641 26.4281 6.66627 27.3807C5.01612 28.3333 3.99941 30.0938 3.99941 31.9995C4.00387 33.2869 4.47765 34.528 5.33255 35.4901V71.103C4.16291 71.493 3.09598 72.1409 2.21041 72.9991C1.1881 74.0103 0.454838 75.2764 0.0859809 76.666C-0.121605 77.4573 0.051382 78.3004 0.554166 78.9455C1.06644 79.613 1.86108 80.0025 2.70202 79.9991L2.70325 80.0001ZM77.3333 77.3148C77.3249 77.3277 77.3104 77.3349 77.2948 77.3332H64.0002C64.2463 76.4131 64.7329 75.5748 65.4109 74.9053C66.4539 73.893 67.8518 73.3288 69.3055 73.3332H72.0282C73.2268 73.3238 74.3953 73.7083 75.3535 74.4276C76.3122 75.1469 77.008 76.1614 77.3333 77.3149L77.3333 77.3148ZM70.667 37.3334C71.1173 37.3278 71.5654 37.2642 72.0001 37.1442V39.6124C71.2055 40.7882 70.3131 41.8948 69.3333 42.9215V37.1442C69.768 37.2642 70.2161 37.3278 70.667 37.3334H70.667ZM72.0001 44.0003V70.6674H69.3333V46.7288C70.2713 45.8689 71.162 44.9581 72.0001 44.0005V44.0003ZM70.667 29.3331C71.374 29.3331 72.0526 29.6144 72.5525 30.1144C73.0525 30.6144 73.3332 31.2929 73.3332 31.9999C73.3332 32.7069 73.0525 33.3855 72.5525 33.8855C72.0525 34.3855 71.374 34.6668 70.667 34.6668C69.9594 34.6668 69.2814 34.3855 68.7814 33.8855C68.2808 33.3855 68.0001 32.7069 68.0001 31.9999C68.0001 31.2929 68.2808 30.6143 68.7814 30.1144C69.2814 29.6144 69.9594 29.3331 70.667 29.3331ZM39.9998 57.3331C52.5411 57.3331 61.1713 53.14 66.667 48.957V71.1041C65.4973 71.4942 64.431 72.1415 63.5453 72.9993C62.5213 74.0093 61.7874 75.2761 61.4203 76.6673C61.3645 76.8871 61.3377 77.1137 61.3399 77.3403H18.667C18.6693 77.1126 18.6425 76.8854 18.5867 76.6645C17.8847 74.0433 15.9098 71.9519 13.3334 71.1003V48.9575C18.8295 53.1399 27.459 57.333 40.0005 57.333L39.9998 57.3331ZM9.33268 37.3331C9.78357 37.3275 10.2317 37.2639 10.6664 37.1439V42.9039C9.68814 41.8811 8.79638 40.7789 7.99952 39.6094V37.1439C8.43424 37.2639 8.88234 37.3275 9.33267 37.3331H9.33268ZM10.6658 46.7277L10.6664 70.6663H7.99953V43.9991C8.8377 44.9567 9.72838 45.8674 10.6664 46.7274L10.6658 46.7277ZM9.33268 29.3334C10.0403 29.3334 10.7183 29.6147 11.2183 30.1147C11.7188 30.6147 11.9995 31.2932 11.9995 32.0002C11.9995 32.7072 11.7188 33.3858 11.2183 33.8858C10.7183 34.3858 10.0402 34.6671 9.33268 34.6671C8.62565 34.6671 7.94708 34.3858 7.44711 33.8858C6.94714 33.3858 6.66642 32.7072 6.66642 32.0002C6.66642 31.2932 6.94711 30.6146 7.44711 30.1147C7.94711 29.6147 8.62568 29.3334 9.33268 29.3334ZM4.07711 74.9048C5.12008 73.8926 6.51797 73.3284 7.97168 73.3328H10.6944C11.8925 73.3233 13.061 73.7078 14.0197 74.4271C14.9784 75.1465 15.6743 76.161 15.9995 77.3144C15.9995 77.3144 15.9889 77.3328 15.961 77.3328H2.66646C2.91312 76.4132 3.40028 75.575 4.07718 74.9049L4.07711 74.9048Z" fill="white"/>
<path d="M46.6681 41.3331C47.9549 41.3292 49.1965 40.8548 50.1587 39.9999H58.6681C59.3751 39.9999 60.0537 39.7192 60.5537 39.2187C61.0537 38.7187 61.3343 38.0406 61.3343 37.3331V34.6668C61.3343 33.9592 61.0537 33.2812 60.5537 32.7812C60.0537 32.2807 59.3751 32 58.6681 32H50.1587C49.8344 31.7148 49.4762 31.471 49.0917 31.2734L46.4371 24.6323L55.2468 21.7333C56.2535 21.4001 57.0867 20.6814 57.565 19.735C58.0432 18.788 58.1264 17.6908 57.7971 16.6826L56.5477 12.8823L53.2145 2.74885V2.7494C52.8831 1.74215 52.1649 0.907833 51.2184 0.42969C50.272 -0.0485532 49.1742 -0.131139 48.1665 0.199775L16.5022 10.6105C15.6233 10.8979 14.9554 11.62 14.7377 12.5189C14.5206 13.4179 14.7845 14.3655 15.4358 15.0228L19.2008 18.8068L19.4223 19.4736L16.8889 20.3057V20.3051C16.217 20.5261 15.6601 21.0054 15.3409 21.6371C15.0222 22.2688 14.9676 23.001 15.1891 23.6734L16.4369 27.472C16.6579 28.1444 17.1366 28.7013 17.7683 29.0206C18.4 29.3398 19.1327 29.3944 19.8052 29.1735L22.3386 28.3414C22.6695 29.3492 23.3877 30.184 24.3348 30.6623C25.2818 31.1405 26.3799 31.2231 27.3878 30.8916L38.8225 27.1328L41.6612 34.2449V34.2455C41.4531 34.8074 41.3426 35.4006 41.3342 35.9999C41.3342 37.4145 41.8961 38.7711 42.8968 39.7711C43.8968 40.7711 45.2533 41.3331 46.6679 41.3331L46.6681 41.3331ZM44.0012 35.9999C44.0012 35.2929 44.2819 34.6143 44.7825 34.1143C45.2825 33.6143 45.9605 33.3331 46.6681 33.3331C47.0012 33.3342 47.3316 33.3989 47.6413 33.5239L47.6664 33.5317C48.2679 33.775 48.7601 34.2287 49.0509 34.808C49.3422 35.3878 49.4119 36.0535 49.2473 36.6807C49.0827 37.3085 48.6954 37.8542 48.1575 38.2164C47.6195 38.5786 46.9677 38.7326 46.3243 38.6489C45.6815 38.5657 45.0905 38.2504 44.663 37.7627C44.2356 37.275 44.0001 36.6483 44.0012 35.9999L44.0012 35.9999ZM58.6684 37.3331H51.8124C52.0646 36.4625 52.0646 35.5373 51.8124 34.6668H58.6684V37.3331ZM49.0004 2.73449C49.6996 2.50457 50.4524 2.8846 50.6828 3.58382L53.6014 12.4504L25.7342 21.6117L21.3677 17.2115L17.3342 13.1434L49.0004 2.73449ZM18.9647 26.6431L17.7152 22.8445L20.2486 22.0125L21.4981 25.811L18.9647 26.6431ZM26.5472 28.3618H26.5478C26.2118 28.4723 25.8452 28.4449 25.5294 28.2859C25.2135 28.1263 24.9741 27.8484 24.8636 27.5124L23.3971 23.042L23.8424 23.4901V23.4896C24.3401 23.9951 25.0204 24.2803 25.7302 24.2803C26.0148 24.2803 26.2983 24.2357 26.569 24.1469L54.4361 14.9856L55.2681 17.5191V17.5185C55.3786 17.8545 55.3518 18.2211 55.1922 18.5369C55.0332 18.8528 54.7547 19.0922 54.4188 19.2027L26.5472 28.3618ZM43.8929 25.4666L46.0012 30.7351C45.1028 30.845 44.2479 31.1843 43.5185 31.72L41.3545 26.3026L43.8929 25.4666Z" fill="white"/>
<path d="M24.7319 16.2561C24.8731 16.2561 25.0132 16.2343 25.1477 16.1908L48.1334 8.63436C48.8331 8.40445 49.2137 7.65055 48.9833 6.95136C48.7533 6.25159 47.9994 5.87101 47.3003 6.10148L24.3145 13.6562C23.6918 13.8604 23.3106 14.4871 23.4144 15.1339C23.5182 15.7807 24.0768 16.2567 24.732 16.2561L24.7319 16.2561Z" fill="white"/>
</svg>
