<svg width="74" height="55" viewBox="0 0 74 55" fill="none" xmlns="http://www.w3.org/2000/svg">
<path d="M67.6272 42.3195H51.2758H21.4358H10.2516H7.11547C6.45922 42.3195 5.80353 42.3755 5.19533 42.0961C4.05917 41.5796 4.05917 40.5885 4.05917 39.6258V36.1645V24.204V11.5038C4.05917 9.54998 3.96319 7.56794 4.05917 5.61406C4.17134 3.31128 7.16303 3.72985 9.00332 3.72985H19.2433H48.939C55.1147 3.72985 61.2912 3.68798 67.4676 3.72985C68.8113 3.74396 69.7393 4.51157 69.7873 5.68372C69.8191 6.42359 69.7873 7.17704 69.7873 7.93055V18.6766V39.9873C69.7884 41.1886 69.1964 42.2775 67.6283 42.3194C65.5803 42.3753 65.5642 45.1664 67.6283 45.1104C70.7165 45.0266 72.972 42.919 72.9883 40.2535V37.588V26.1579C72.9883 19.3473 73.0681 12.5219 72.9883 5.71201C72.9565 3.07428 70.6362 1.009 67.6122 0.953051C67.0999 0.938935 66.572 0.953051 66.0603 0.953051H56.8126H26.7169C19.997 0.953051 13.261 0.938935 6.54117 0.953051C4.18903 0.953051 2.09303 2.01369 1.21303 3.98168C0.797288 4.90262 0.860917 5.87948 0.860917 6.84284V16.6957V39.5976C0.860917 41.0214 1.05289 42.3332 2.15667 43.4912C3.30846 44.6769 4.97253 45.1096 6.70082 45.1096H14.1885H43.4357H66.4114H67.6273C69.6921 45.1096 69.6921 42.3186 67.6279 42.3186L67.6272 42.3195Z" fill="white"/>
<path d="M2.55397 36.5159H9.40225H25.8508H45.738H62.858C65.642 36.5159 68.4423 36.6138 71.2257 36.5159H71.3379C73.402 36.5159 73.402 33.723 71.3379 33.723H64.4896H48.041H28.1538H11.0338C8.24985 33.723 5.44956 33.6251 2.66613 33.723H2.55397C0.489824 33.723 0.489824 36.5159 2.55397 36.5159Z" fill="white"/>
<path d="M23.7079 54.3513H46.8279H50.156C52.2202 54.3513 52.2202 51.5583 50.156 51.5583H27.036H23.7079C21.6599 51.5579 21.6599 54.3513 23.7079 54.3513Z" fill="white"/>
<path d="M28.6191 43.8135V53.0385C28.6191 54.8389 31.8189 54.8389 31.8189 53.0385V43.8135C31.8189 42.013 28.6191 42.013 28.6191 43.8135Z" fill="white"/>
<path d="M42.0586 43.8135V53.0385C42.0586 54.8389 45.2583 54.8389 45.2583 53.0385V43.8135C45.2583 42.013 42.0586 42.013 42.0586 43.8135Z" fill="white"/>
</svg>
