<svg width="36" height="30" viewBox="0 0 36 30" fill="none" xmlns="http://www.w3.org/2000/svg">
<path d="M34.5 1.50044C33.0636 2.51365 31.4732 3.2886 29.79 3.79544C28.8866 2.7567 27.686 2.02047 26.3506 1.68632C25.0151 1.35218 23.6092 1.43623 22.3231 1.92712C21.037 2.418 19.9327 3.29204 19.1595 4.43101C18.3863 5.56998 17.9815 6.91894 18 8.29544V9.79543C15.364 9.86379 12.7519 9.27915 10.3965 8.0936C8.04112 6.90805 6.01548 5.15839 4.5 3.00044C4.5 3.00044 -1.5 16.5004 12 22.5004C8.91079 24.5974 5.23074 25.6488 1.5 25.5004C15 33.0004 31.5 25.5004 31.5 8.25043C31.4986 7.83262 31.4584 7.41583 31.38 7.00544C32.9109 5.49567 33.9912 3.5895 34.5 1.50044V1.50044Z" stroke="white" stroke-width="2" stroke-linecap="round" stroke-linejoin="round"/>
</svg>
