<svg width="63" height="64" viewBox="0 0 63 64" fill="none" xmlns="http://www.w3.org/2000/svg">
<path d="M62.9969 62.7106L62.9947 62.6926C61.873 53.489 61.1327 47.408 58.1172 42.7352C55.0771 38.0235 49.9347 34.9208 39.7805 31.6733C39.4989 30.8177 39.0055 30.0765 38.3005 29.4684C39.1125 28.3452 39.7038 26.5789 40.0913 24.1311C41.1357 23.4557 41.8995 21.9525 42.4741 19.4533C43.0727 17.7225 43.0408 16.7224 42.371 16.215C41.9857 15.9233 41.5086 15.9002 41.0646 15.9809C41.0735 15.6578 41.0606 15.2829 41.0287 14.8494C41.2494 14.5495 41.4448 14.2362 41.6106 13.91C41.6111 13.9085 41.6122 13.907 41.6128 13.9054C41.6162 13.8993 41.6195 13.8936 41.6229 13.8874C41.6369 13.8597 41.6475 13.832 41.657 13.8027C41.6593 13.796 41.661 13.7883 41.6626 13.7816C41.6716 13.7493 41.6783 13.7169 41.6822 13.6841C41.6828 13.6805 41.6839 13.6774 41.6845 13.6738L41.9533 10.8978C44.0275 10.7756 45.2611 9.6159 45.1743 7.85577C45.0864 6.07355 43.6259 4.03612 41.3619 2.53646C39.4804 1.28996 36.2173 -0.158894 31.3572 0.0141347C31.3399 0.0146482 31.3236 0.0156756 31.3063 0.0177298C27.6361 0.392147 24.1631 1.60575 21.5261 3.43675C19.1349 5.09722 17.7524 7.03195 17.8273 8.61169C17.852 9.12632 18.1437 10.7288 20.7409 11.0056L21.045 13.6834C21.0455 13.687 21.0467 13.6911 21.0472 13.6952C21.0523 13.7312 21.0595 13.7671 21.0707 13.8026C21.0713 13.8046 21.073 13.8077 21.0741 13.8103C21.0814 13.8313 21.0898 13.8524 21.0987 13.8735C21.3216 14.3475 21.6083 14.7954 21.9505 15.2139C21.9365 15.4964 21.9309 15.7527 21.9376 15.9812C21.4935 15.9006 21.0159 15.9242 20.6311 16.2154C19.9608 16.7233 19.9289 17.7223 20.5281 19.4536C21.1032 21.9523 21.8665 23.456 22.9108 24.1314C23.3129 26.6702 23.9339 28.4754 24.7924 29.5905C24.1831 30.1652 23.7497 30.8488 23.4915 31.6274C23.4143 31.6274 23.337 31.6367 23.2603 31.6603C13.0814 34.9118 7.92974 38.0166 4.88485 42.7349C1.86935 47.4086 1.12906 53.4891 0.00743852 62.6923L0.00519858 62.7098C0.00295864 62.7247 0.00183863 62.7406 0.00127868 62.7555C-0.00376115 62.83 0.00631905 62.9019 0.027598 62.9697C0.0578376 63.0652 0.111034 63.1515 0.18159 63.2234C0.250468 63.2943 0.337262 63.3513 0.434701 63.3877C0.50694 63.4155 0.58478 63.4319 0.665977 63.4365C0.683336 63.437 0.699577 63.4381 0.715816 63.437H62.2831H62.2931C62.306 63.437 62.32 63.4365 62.3335 63.4365C62.4152 63.4319 62.4931 63.4155 62.5653 63.3877C62.5659 63.3877 62.5659 63.3877 62.567 63.3872C62.6644 63.3497 62.7495 63.2932 62.8184 63.2234C62.889 63.1515 62.9427 63.0647 62.9724 62.9687C62.9937 62.9003 63.0038 62.8279 62.9987 62.7529C62.9993 62.7406 62.9976 62.7257 62.9959 62.7103L62.9969 62.7106ZM59.2635 48.775C59.7036 50.2942 60.0558 51.9618 60.3678 53.8098C60.2922 53.7995 60.2132 53.7995 60.1326 53.8129C59.6297 53.8971 59.2528 53.836 58.9807 53.6264C58.6144 53.3434 58.1855 52.6131 58.1944 50.7436C58.293 50.4092 58.3042 49.815 57.4883 49.2531C58.7595 48.6142 59.1822 48.7369 59.2635 48.775L59.2635 48.775ZM44.6569 34.7749C49.8333 36.8057 53.2191 38.9074 55.5312 41.5539C55.1946 41.8025 54.8928 42.0609 54.6554 42.2766C50.8009 38.722 47.5284 36.756 44.6865 36.2886C44.6299 35.702 44.6339 35.1777 44.6568 34.775L44.6569 34.7749ZM36.41 39.8507C35.9581 39.482 35.4648 39.1784 35.0106 38.8996C34.5979 38.6458 34.2087 38.405 33.9864 38.1913L32.6469 36.4641C35.5773 34.4251 37.3738 32.7112 38.0732 31.2783C39.2414 33.1859 38.6663 36.2053 36.41 39.8507V39.8507ZM30.342 38.8626L31.6379 37.3937L32.7595 38.8395L34.6193 56.4868L31.5365 60.0095L28.3883 56.6204L30.342 38.8626ZM31.6737 35.5165C28.685 33.4503 27.3231 32.0344 26.7217 31.1098C28.3938 32.1422 29.9478 32.6588 31.5024 32.6588C33.2019 32.6588 34.9021 32.0399 36.7567 30.8047C36.293 31.7065 35.0129 33.2063 31.6737 35.5164V35.5165ZM22.1444 10.8587C27.7688 9.30563 33.9562 9.23108 40.5614 10.6363L40.3402 12.9213C33.5442 12.4282 27.5086 12.4231 22.3762 12.9054L22.1444 10.8587ZM30.8874 6.82591L30.809 6.81461C29.9511 6.69648 29.7523 6.59171 29.6907 6.22243C29.6364 5.89629 29.7915 5.50853 29.9416 5.13309C30.081 4.78281 30.226 4.42073 30.2176 4.05659C30.2143 3.90251 30.1857 3.76435 30.1437 3.64264C30.2837 3.67551 30.4377 3.69965 30.6107 3.70581C30.8319 3.71403 31.1943 3.68321 31.5224 3.55636C31.705 3.63288 31.9525 3.71198 32.3377 3.70735C32.5343 3.70529 32.709 3.67859 32.8664 3.64109C32.7141 4.04324 32.7706 4.38477 33.0092 5.00258C33.0321 5.06215 33.0556 5.12224 33.0803 5.18387C33.2253 5.54698 33.3614 5.88956 33.3155 6.20799C33.26 6.59267 33.0478 6.7067 32.1809 6.81968C31.9597 6.84844 31.715 6.88028 31.4927 6.95578C31.2911 6.88594 31.0789 6.85204 30.8874 6.82585L30.8874 6.82591ZM23.383 14.7815C23.3583 14.5299 23.1763 14.3178 22.9215 14.233C22.9036 14.2084 22.884 14.1842 22.8666 14.1596C27.7357 13.7266 33.4286 13.7338 39.8214 14.1806C38.2148 16.3218 34.9384 17.6361 31.1595 17.5929C27.8606 17.556 25.0064 16.4913 23.383 14.7815L23.383 14.7815ZM19.238 8.55619C19.1372 6.45198 23.6926 2.10549 31.4361 1.30727C35.8808 1.15422 38.8363 2.46132 40.5354 3.58662C42.4293 4.84083 43.6966 6.53928 43.7638 7.91522C43.826 9.18945 42.8157 9.54282 41.9131 9.60541C41.7837 9.5751 41.6543 9.54685 41.5239 9.51758C41.52 9.51604 41.5149 9.51604 41.511 9.5145C38.136 8.75334 34.8611 8.36199 31.7023 8.34247C31.7353 8.33579 31.7672 8.32655 31.798 8.31525C31.9005 8.27827 31.9895 8.22075 32.0618 8.14782C32.1469 8.13138 32.2757 8.11495 32.3765 8.10211C33.0664 8.01274 34.5022 7.8263 34.7128 6.37998C34.8052 5.74518 34.5834 5.18741 34.4048 4.74002C34.3818 4.68352 34.36 4.62754 34.3387 4.57259C34.2928 4.45292 34.1853 4.17456 34.192 4.08725C34.197 4.02767 34.323 3.8325 34.3762 3.7493C34.5308 3.50894 34.5005 3.2054 34.3018 2.99431C34.2721 2.96298 34.2519 2.93782 34.2329 2.91368C34.1819 2.85153 34.1181 2.77398 33.996 2.66356C33.9159 2.54698 33.8213 2.45864 33.6387 2.3287C33.4399 2.18695 33.1745 2.15305 32.9399 2.23933L32.834 2.27939C32.6123 2.36362 32.4796 2.41138 32.3172 2.41395C32.1839 2.416 32.1581 2.40368 32.031 2.34615C31.942 2.30558 31.8311 2.25576 31.6838 2.21262C31.4363 2.13918 31.1653 2.19773 30.9793 2.36054C30.9189 2.38622 30.771 2.41755 30.6663 2.41292C30.4994 2.40676 30.36 2.35335 30.1674 2.27991L30.0615 2.23779C29.828 2.15151 29.562 2.1854 29.3627 2.32664C29.156 2.47405 28.9824 2.67229 28.8295 2.8464C28.7836 2.89879 28.7394 2.94912 28.6985 2.99226C28.4986 3.20284 28.4689 3.50689 28.624 3.74674C28.642 3.77447 28.6616 3.80375 28.6828 3.83456C28.7584 3.94447 28.8043 4.01484 28.8049 4.08006C28.8071 4.2023 28.7052 4.46012 28.614 4.68714C28.423 5.16632 28.1845 5.76312 28.2936 6.41637C28.5255 7.80875 29.8729 7.99413 30.598 8.09327L30.6741 8.10354C30.8124 8.12306 30.9127 8.14104 30.9715 8.15696C31.0599 8.24324 31.173 8.30641 31.2968 8.33928C27.8054 8.35263 24.4594 8.82104 21.2827 9.74547C20.348 9.71208 19.2813 9.46863 19.2381 8.55597L19.238 8.55619ZM23.8785 23.1571C23.4362 22.9558 22.5923 22.1674 21.9035 19.1547C21.8985 19.1331 21.8923 19.1121 21.8845 19.09C21.4432 17.825 21.4981 17.3659 21.5373 17.2328C21.642 17.2364 21.9231 17.2796 22.4915 17.5636C22.7592 17.6981 23.0918 17.6581 23.3141 17.465C23.5359 17.2719 23.5975 16.9699 23.4664 16.7167C23.4558 16.6956 23.4396 16.6566 23.4222 16.5903C25.3491 18.0037 28.0852 18.8511 31.1417 18.8856C31.2077 18.8861 31.2727 18.8871 31.3393 18.8871C34.6556 18.8871 37.6241 17.9262 39.6311 16.2996C39.6031 16.5595 39.5599 16.6745 39.5375 16.7166C39.4065 16.9698 39.4681 17.2718 39.6899 17.4649C39.9116 17.658 40.2442 17.6971 40.5125 17.5635C41.0809 17.2795 41.3614 17.2369 41.4667 17.2328C41.5059 17.3648 41.5602 17.825 41.1195 19.09C41.1122 19.111 41.1066 19.1326 41.1005 19.1547C40.4117 22.1674 39.5673 22.9558 39.1254 23.1571C38.916 23.2526 38.7715 23.4375 38.7402 23.6501C38.1275 27.7866 37.0787 29.1173 36.307 29.5061C36.2767 29.522 36.2471 29.539 36.2191 29.5585C32.7359 31.9874 30.2669 31.9874 26.7839 29.5585C26.7559 29.539 26.7268 29.5215 26.696 29.5061C25.9243 29.1179 24.8761 27.7866 24.2628 23.6501C24.2315 23.4365 24.0875 23.2526 23.8787 23.1571L23.8785 23.1571ZM25.1995 31.2345C25.9057 32.6643 27.7144 34.3838 30.6633 36.4382L29.1301 38.1763C28.9055 38.3981 28.5639 38.6174 28.1686 38.8712C27.7486 39.1408 27.2911 39.4341 26.8538 39.8033C24.5992 36.1594 24.0275 33.1399 25.1996 31.2345H25.1995ZM18.3464 34.7742C18.3694 35.1769 18.3733 35.7012 18.3162 36.2883C15.4743 36.7557 12.2017 38.7218 8.3473 42.2764C8.11043 42.0606 7.80804 41.8013 7.47148 41.5537C9.78368 38.9066 13.1699 36.805 18.3463 34.7743L18.3464 34.7742ZM3.71545 48.8623C3.93496 48.8459 4.41096 48.9065 5.33882 49.3723C4.52292 49.9352 4.53412 50.5295 4.63267 50.8628C4.64275 52.7323 4.21268 53.4622 3.84701 53.7457C3.57486 53.9562 3.19911 54.0168 2.69511 53.9321C2.66879 53.9275 2.64247 53.9244 2.61728 53.9228C2.92807 52.0662 3.27806 50.3898 3.71541 48.8624L3.71545 48.8623ZM1.4963 62.1445C1.80821 59.5868 2.09436 57.2859 2.41187 55.2008C2.42083 55.2028 2.43091 55.2044 2.43987 55.2059C3.37113 55.3631 4.15011 55.2038 4.75536 54.7354C5.64686 54.0457 6.0674 52.7422 6.04165 50.7509C6.04109 50.6847 6.02877 50.6194 6.00637 50.5573C6.03941 50.5172 6.12341 50.4356 6.32445 50.3205C6.39893 50.2784 6.46389 50.2235 6.51596 50.1587L6.9774 49.5943C7.09556 49.45 7.14259 49.2676 7.10788 49.0894C7.0726 48.9122 6.9578 48.7556 6.79261 48.6596C6.0159 48.2066 5.02244 47.694 4.11256 47.5836C4.2632 47.1383 4.42448 46.7058 4.59583 46.2867C5.21685 46.3612 6.19913 46.6843 7.70938 47.6247C8.03194 47.826 8.47041 47.7485 8.68991 47.4526C8.90886 47.1568 8.82487 46.7547 8.50232 46.5533C7.20203 45.7434 6.09379 45.2498 5.14635 45.0613C5.57697 44.1877 6.06864 43.3685 6.63424 42.5971C7.28382 43.0845 7.79566 43.6248 7.80237 43.6315C7.93172 43.7691 8.11875 43.8503 8.31587 43.8554C8.51634 43.8585 8.70505 43.7891 8.84338 43.6587C12.8876 39.8329 16.3135 37.7611 19.0267 37.5017C19.3492 37.4709 19.6074 37.2423 19.6528 36.947C19.8264 35.8089 19.7782 34.8223 19.72 34.2511C20.8114 33.849 21.9761 33.4489 23.2187 33.0452C23.067 35.2871 24.0413 38.0887 26.1217 41.2165C26.2421 41.3978 26.4526 41.5133 26.6839 41.5262C26.6979 41.5267 26.7108 41.5267 26.7248 41.5267C26.9409 41.5267 27.1465 41.4353 27.2809 41.2781C27.7165 40.7666 28.2558 40.3968 28.7917 40.0511L26.9527 56.7649C26.9331 56.9401 26.993 57.1157 27.1173 57.2498L31.0143 61.4453C31.1487 61.5896 31.3453 61.6728 31.5519 61.6728H31.5626C31.7731 61.6698 31.9714 61.5814 32.1024 61.431L35.899 57.0921C36.0144 56.9606 36.0687 56.7932 36.0513 56.6247L34.3014 40.02C34.8944 40.3857 35.5507 40.7997 35.9881 41.3138C36.1225 41.4715 36.328 41.5624 36.5442 41.5624C36.5582 41.5624 36.5711 41.5618 36.5851 41.5618C36.8163 41.55 37.0263 41.434 37.1473 41.2521C39.2113 38.1485 40.1857 35.3663 40.0531 33.1332C41.1949 33.5066 42.2713 33.8784 43.2831 34.2513C43.2243 34.8224 43.1767 35.8091 43.3503 36.9472C43.3951 37.2415 43.6533 37.4711 43.9764 37.5019C46.6895 37.7618 50.1155 39.833 54.1597 43.6589C54.2974 43.7888 54.4884 43.8617 54.6866 43.855C54.8849 43.8499 55.0708 43.7688 55.2001 43.6311C55.2069 43.6244 55.7187 43.0841 56.3688 42.5967C56.9047 43.3271 57.3729 44.0996 57.7867 44.9213C56.8162 45.0934 55.6733 45.5931 54.3244 46.4339C54.0018 46.6347 53.9178 47.0373 54.1368 47.3332C54.3557 47.629 54.7947 47.706 55.1173 47.5052C56.73 46.5006 57.7414 46.2007 58.3523 46.1549C58.5275 46.574 58.6905 47.0054 58.8445 47.4507C57.8998 47.5252 56.8475 48.0655 56.034 48.5401C55.8688 48.6371 55.754 48.7928 55.7187 48.9699C55.6834 49.1471 55.7299 49.33 55.8481 49.4748L56.3095 50.0392C56.3621 50.1029 56.4266 50.1579 56.501 50.201C56.7015 50.3151 56.7861 50.3977 56.8191 50.4378C56.7973 50.5 56.7849 50.5657 56.7838 50.6314C56.7575 52.6227 57.1786 53.9262 58.0701 54.616C58.6755 55.0849 59.4555 55.2425 60.3856 55.0864C60.4489 55.0761 60.5082 55.0576 60.5642 55.033C60.893 57.1614 61.1853 59.5182 61.5061 62.1442H1.49575L1.4963 62.1445ZM49.8547 49.5116H38.3139C37.9242 49.5116 37.6078 49.8018 37.6078 50.1592V52.5582C37.6078 52.9157 37.9242 53.2059 38.3139 53.2059H49.8547C50.2444 53.2059 50.5608 52.9157 50.5608 52.5582V50.1592C50.5597 49.8018 50.2444 49.5116 49.8547 49.5116ZM49.1485 51.9106H39.0201V50.8064H49.1485V51.9106ZM50.5597 56.0867V60.179C50.5597 60.5365 50.2433 60.8267 49.8536 60.8267H38.314C37.9242 60.8267 37.6078 60.5365 37.6078 60.179V56.0867C37.6078 55.7292 37.9242 55.439 38.314 55.439C38.7037 55.439 39.0201 55.7292 39.0201 56.0867V59.5324H49.1485V56.0867C49.1485 55.7292 49.4649 55.439 49.8547 55.439C50.2444 55.439 50.5597 55.7292 50.5597 56.0867H50.5597ZM45.213 57.7445C45.213 57.1734 44.7067 56.7091 44.084 56.7091C43.4613 56.7091 42.9551 57.1734 42.9551 57.7445C42.9551 58.3156 43.4613 58.7799 44.084 58.7799C44.7067 58.7799 45.213 58.3156 45.213 57.7445ZM43.8018 57.7445C43.8018 57.6017 43.9289 57.4851 44.0846 57.4851C44.2402 57.4851 44.3674 57.6017 44.3674 57.7445C44.3674 57.8873 44.2403 58.0039 44.0846 58.0039C43.9289 58.0039 43.8018 57.8873 43.8018 57.7445ZM25.1712 56.0867V60.179C25.1712 60.5365 24.8548 60.8267 24.465 60.8267H12.9249C12.5351 60.8267 12.2187 60.5365 12.2187 60.179V56.0867C12.2187 55.7292 12.5351 55.439 12.9249 55.439C13.3146 55.439 13.631 55.7292 13.631 56.0867V59.5324H23.7594V56.0867C23.7594 55.7292 24.0758 55.439 24.4656 55.439C24.8547 55.439 25.1711 55.7292 25.1711 56.0867H25.1712ZM18.6955 58.7799C19.3182 58.7799 19.8244 58.3156 19.8244 57.7445C19.8244 57.1734 19.3182 56.7091 18.6955 56.7091C18.0728 56.7091 17.5666 57.1734 17.5666 57.7445C17.5666 58.3156 18.0728 58.7799 18.6955 58.7799ZM18.6955 57.4857C18.8512 57.4857 18.9783 57.6022 18.9783 57.745C18.9783 57.8878 18.8512 58.0044 18.6955 58.0044C18.5398 58.0044 18.4127 57.8878 18.4127 57.745C18.4121 57.6012 18.5387 57.4857 18.6955 57.4857Z" fill="white"/>
</svg>
