<svg width="42" height="42" viewBox="0 0 42 42" fill="none" xmlns="http://www.w3.org/2000/svg">
<path d="M36.6243 41.3125H36.3586C5.65551 39.5469 1.29613 13.6406 0.686758 5.73438C0.637656 5.11966 0.710334 4.50129 0.900625 3.9147C1.09092 3.32812 1.39508 2.78485 1.79569 2.31602C2.1963 1.84719 2.68549 1.46201 3.23521 1.18256C3.78494 0.903111 4.3844 0.734878 4.99926 0.687501H13.6086C14.2345 0.686896 14.8461 0.874235 15.3643 1.22525C15.8825 1.57627 16.2833 2.0748 16.5149 2.65625L18.8899 8.5C19.1186 9.06804 19.1753 9.69075 19.0531 10.2908C18.9309 10.8908 18.635 11.4417 18.2024 11.875L14.8743 15.2344C15.3941 18.1887 16.8089 20.912 18.9272 23.0359C21.0455 25.1598 23.7651 26.5817 26.718 27.1094L30.1086 23.75C30.5485 23.3221 31.1045 23.0332 31.7075 22.9193C32.3105 22.8054 32.9336 22.8715 33.4993 23.1094L39.3899 25.4688C39.9626 25.7076 40.4512 26.1116 40.7934 26.6292C41.1357 27.1467 41.3162 27.7545 41.3118 28.375V36.625C41.3118 37.8682 40.8179 39.0605 39.9388 39.9396C39.0597 40.8186 37.8675 41.3125 36.6243 41.3125ZM5.37426 3.8125C4.95986 3.8125 4.56243 3.97712 4.2694 4.27015C3.97638 4.56317 3.81176 4.9606 3.81176 5.375V5.5C4.53051 14.75 9.13988 36.625 36.5305 38.1875C36.7358 38.2002 36.9415 38.1722 37.136 38.1052C37.3304 38.0382 37.5097 37.9335 37.6636 37.797C37.8175 37.6606 37.9429 37.4951 38.0327 37.31C38.1224 37.125 38.1748 36.9241 38.1868 36.7188V28.375L32.2961 26.0156L27.8118 30.4688L27.0618 30.375C13.468 28.6719 11.6243 15.0781 11.6243 14.9375L11.5305 14.1875L15.968 9.70313L13.6243 3.8125H5.37426Z" fill="white"/>
</svg>
